<svg height="496pt" viewBox="0 -68 496 496" width="496pt" xmlns="http://www.w3.org/2000/svg"><path d="m63.015625 209.3125c-6.890625 4.488281-12.96875 10.113281-17.976563 16.632812-8.398437 10.914063-12.980468 24.285157-13.039062 38.054688 0 4.421875 3.582031 8 8 8s8-3.578125 8-8c.066406-10.273438 3.5-20.238281 9.777344-28.375 3.90625-5.070312 8.640625-9.441406 14.007812-12.933594 3.691406-2.433594 4.71875-7.394531 2.285156-11.089844-2.429687-3.695312-7.394531-4.71875-11.085937-2.289062zm0 0"/><path d="m343.015625 209.3125c-6.890625 4.488281-12.96875 10.113281-17.976563 16.632812-8.398437 10.914063-12.980468 24.285157-13.039062 38.054688 0 4.421875 3.582031 8 8 8s8-3.578125 8-8c.066406-10.273438 3.5-20.238281 9.777344-28.375 3.90625-5.070312 8.640625-9.441406 14.007812-12.933594 3.691406-2.433594 4.71875-7.394531 2.285156-11.089844-2.429687-3.695312-7.394531-4.71875-11.085937-2.289062zm0 0"/><path d="m478.398438 211.496094-70.832032-206.09375c-.773437-2.253906-2.511718-4.046875-4.738281-4.886719-2.230469-.839844-4.71875-.644531-6.789063.535156l-56 32c-2.496093 1.421875-4.039062 4.074219-4.039062 6.949219v24c-.003906 2.863281 1.515625 5.507812 3.992188 6.941406 2.476562 1.433594 5.53125 1.433594 8.007812.003906l34.398438-19.679687 42.160156 122.566406c-11.8125-3.820312-24.144532-5.785156-36.558594-5.832031-48.542969 0-89.6875 28.625-103.246094 67.875-22.015625-15.617188-51.492187-15.617188-73.507812 0-13.558594-39.25-54.703125-67.875-103.246094-67.875-12.40625.046875-24.730469 2.015625-36.535156 5.832031l42.136718-122.566406 34.398438 19.679687c2.476562 1.429688 5.53125 1.429688 8.007812-.003906 2.476563-1.433594 3.996094-4.078125 3.992188-6.941406v-24c.003906-2.863281-1.519531-5.511719-4-6.941406l-56-32c-2.070312-1.179688-4.558594-1.375-6.789062-.535156-2.226563.839843-3.964844 2.632812-4.738282 4.886718l-70.871094 206.085938c-11.328124 15.171875-17.496093 33.574218-17.601562 52.503906 0 52.9375 48.449219 96 108 96 50.910156 0 93.601562-31.511719 104.945312-73.726562h.054688c23.878906-19.105469 46.121094-19.105469 70 0h.054688c11.34375 42.207031 54.035156 73.726562 104.945312 73.726562 59.550781 0 108-43.0625 108-96-.105469-18.929688-6.273438-37.332031-17.601562-52.503906zm-88.796876-179.496094c-2.230468-.84375-4.71875-.644531-6.785156.546875l-30.816406 17.664063v-5.601563l43.574219-24.910156 57.664062 167.765625c-.261719-.175782-.550781-.320313-.796875-.496094-1.128906-.742188-2.3125-1.398438-3.464844-2.101562-1.601562-.945313-3.066406-1.960938-4.671874-2.832032l-49.90625-145.113281c-.777344-2.277344-2.539063-4.085937-4.796876-4.921875zm-289.175781-12.269531 43.574219 24.910156v5.601563l-30.832031-17.601563c-2.070313-1.183594-4.558594-1.378906-6.789063-.539063-2.230468.839844-3.972656 2.628907-4.746094 4.882813l-49.921874 145.082031c-1.597657.878906-3.152344 1.902344-4.71875 2.863282-1.128907.6875-2.289063 1.328124-3.390626 2.054687-.273437.183594-.570312.328125-.839843.511719zm7.574219 324.269531c-50.726562 0-92-35.886719-92-80 .101562-15.925781 5.421875-31.382812 15.152344-44 1.988281-2.597656 4.125-5.082031 6.398437-7.4375l.175781-.160156c7.011719-7.15625 15.15625-13.105469 24.105469-17.601563 14.328125-7.171875 30.144531-10.871093 46.167969-10.800781 50.726562 0 92 35.890625 92 80 0 44.113281-41.273438 80-92 80zm172-79.054688c-19.703125-11.796874-44.296875-11.796874-64 0v-13c18.320312-16.03125 45.679688-16.03125 64 0zm108 79.054688c-50.726562 0-92-35.886719-92-80 0-44.109375 41.273438-80 92-80 16.027344-.058594 31.839844 3.652344 46.167969 10.832031 11.96875 5.984375 22.441406 14.585938 30.632812 25.167969 9.746094 12.609375 15.085938 28.066406 15.199219 44 0 44.113281-41.273438 80-92 80zm0 0"/></svg>