<?xml version="1.0"?>
<svg xmlns="http://www.w3.org/2000/svg" viewBox="0 0 512 512" width="512" height="512"><g id="outline"><path d="M357.706,132.133,352,63.667V56a7.934,7.934,0,0,0-.247-1.938l.008,0-6.107-24.427A17.975,17.975,0,0,0,328.192,16H167.808a17.974,17.974,0,0,0-17.462,13.634L144.239,54.06l.008,0A7.934,7.934,0,0,0,144,56v7.667l-5.706,68.465c-.966,11.582-1.455,23.354-1.455,34.989,0,6.809,15.171,321.269,15.171,321.269A8,8,0,0,0,160,496h72a8,8,0,0,0,8-8V267.668c0-7.533.293-15.167.871-22.689l6.186-80.4a4.958,4.958,0,0,1,9.886,0l6.186,80.4c.578,7.522.871,15.156.871,22.689V488a8,8,0,0,0,8,8h64a8,8,0,0,0,7.99-7.61s15.171-314.46,15.171-321.269C359.161,155.486,358.672,143.714,357.706,132.133ZM160,64h31.313a48.268,48.268,0,0,1-34.473,38.251l3.133-37.587Q160,64.332,160,64Zm32-16V32h16V48Zm32,0V32h48V48Zm64-16h16V48H288Zm48,32q0,.333.027.664l3.133,37.587A48.268,48.268,0,0,1,304.687,64Zm-5.867-30.485L333.754,48H320V32h8.192A2,2,0,0,1,330.133,33.515ZM167.808,32H176V48H162.246l3.621-14.484A2,2,0,0,1,167.808,32Zm63.3,131.352-6.186,80.4c-.538,7-.827,14.083-.891,21.11l-14.314,18.19a8,8,0,1,0,12.574,9.894L224,290.771V448H208v16h16v16H167.619l-.78-16H192V448H166.058l-7.725-158.352,4.01,4.009a8,8,0,1,0,11.314-11.314l-16-16c-.155-.155-.318-.3-.481-.435,0,0-4.337-92.236-4.337-98.787,0-11.193.471-22.517,1.4-33.66l1.209-14.5A64.282,64.282,0,0,0,207.479,64H224v64a8,8,0,0,0,2.343,5.657l13.966,13.967A20.971,20.971,0,0,0,231.1,163.352ZM280,480V464h16V448H280V290.771l1.713,2.176a8,8,0,0,0,12.574-9.894l-14.314-18.19c-.064-7.027-.353-14.113-.891-21.11l-6.186-80.4a21.035,21.035,0,0,0-11.27-16.979l.031-.031L240,124.687V64h48.521a64.281,64.281,0,0,0,52.031,54.962l1.209,14.5c.929,11.142,1.4,22.466,1.4,33.659,0,6.551-4.337,98.787-4.337,98.787-.163.139-.326.28-.481.435l-16,16a8,8,0,0,0,11.314,11.314l4.01-4.009L329.942,448H312v16h17.161l-.78,16Z"/></g></svg>
